<?xml version="1.0" encoding="utf-8"?>
<!-- Generator: Adobe Illustrator 17.0.0, SVG Export Plug-In . SVG Version: 6.00 Build 0)  -->
<!DOCTYPE svg PUBLIC "-//W3C//DTD SVG 1.1//EN" "http://www.w3.org/Graphics/SVG/1.1/DTD/svg11.dtd">
<svg version="1.1" id="Capa_1" xmlns="http://www.w3.org/2000/svg" xmlns:xlink="http://www.w3.org/1999/xlink" x="0px" y="0px"
	 width="1984.25px" height="2234.483px" viewBox="0 0 1984.25 2234.483" enable-background="new 0 0 1984.25 2234.483"
	 xml:space="preserve">
<text transform="matrix(1 0 0 1 111.5547 2182.311)"><tspan x="0" y="0" fill="#010202" font-family="'NoAddedSugar'" font-size="208.5356" letter-spacing="50">d</tspan><tspan x="123.886" y="0" fill="#010202" font-family="'NoAddedSugar'" font-size="208.5356" letter-spacing="37">i</tspan><tspan x="180.453" y="0" fill="#010202" font-family="'NoAddedSugar'" font-size="208.5356" letter-spacing="32">s</tspan><tspan x="282.526" y="0" fill="#010202" font-family="'NoAddedSugar'" font-size="208.5356" letter-spacing="35">e</tspan><tspan x="391.397" y="0" fill="#010202" font-family="'NoAddedSugar'" font-size="208.5356" letter-spacing="38">ñ</tspan><tspan x="500.143" y="0" fill="#010202" font-family="'NoAddedSugar'" font-size="208.5356" letter-spacing="39">a</tspan><tspan x="613.994" y="0" fill="#010202" font-family="'NoAddedSugar'" font-size="208.5356" letter-spacing="40">d</tspan><tspan x="728.079" y="0" fill="#010202" font-family="'NoAddedSugar'" font-size="208.5356" letter-spacing="40">o</tspan><tspan x="841.339" y="0" fill="#010202" font-family="'NoAddedSugar'" font-size="208.5356" letter-spacing="32">r</tspan><tspan x="933.438" y="0" fill="#010202" font-family="'NoAddedSugar'" font-size="208.5356" letter-spacing="32"> </tspan><tspan x="1017.487" y="0" fill="#010202" font-family="'NoAddedSugar'" font-size="208.5356" letter-spacing="48">g</tspan><tspan x="1139.496" y="0" fill="#010202" font-family="'NoAddedSugar'" font-size="208.5356" letter-spacing="22">r</tspan><tspan x="1221.585" y="0" fill="#010202" font-family="'NoAddedSugar'" font-size="208.5356" letter-spacing="32">áf</tspan><tspan x="1424.009" y="0" fill="#010202" font-family="'NoAddedSugar'" font-size="208.5356" letter-spacing="39">i</tspan><tspan x="1482.87" y="0" fill="#010202" font-family="'NoAddedSugar'" font-size="208.5356" letter-spacing="27">c</tspan><tspan x="1579.429" y="0" fill="#010202" font-family="'NoAddedSugar'" font-size="208.5356">o</tspan></text>
<path fill="#010202" d="M125.31,1974.666v-363.802h100.459c128.2,0,192.31,59.119,192.31,177.337
	c0,56.159-17.811,101.277-53.404,135.351c-35.609,34.075-83.259,51.114-142.965,51.114H125.31z M167.929,1649.423v286.682h54.289
	c47.697,0,84.817-12.761,111.38-38.302c26.543-25.541,39.829-61.738,39.829-108.589c0-93.194-49.564-139.791-148.672-139.791
	H167.929z"/>
<path fill="#010202" d="M125.31,1974.666h3.914v-359.888h96.544c31.75,0,59.413,3.664,82.985,10.913
	c35.363,10.895,61.483,29.699,79,56.583c17.497,26.888,26.41,62.109,26.41,105.927c-0.043,55.354-17.427,99.187-52.198,132.525
	c-34.807,33.276-81.266,49.994-140.256,50.026H125.31V1974.666h3.914H125.31v3.914h96.399
	c60.422,0.028,109.258-17.325,145.67-52.198c36.419-34.815,54.653-81.22,54.614-138.182c0-29.906-4.051-56.222-12.252-78.914
	c-12.279-34.043-34.051-59.875-64.889-76.911c-30.841-17.055-70.569-25.423-119.083-25.427H121.395v371.631h3.914V1974.666z
	 M167.929,1649.423h-3.914v290.596h58.203c24.195,0,45.833-3.233,64.889-9.786c19.047-6.548,35.5-16.429,49.204-29.608
	c13.708-13.183,24.007-29.166,30.83-47.774c6.827-18.617,10.201-39.845,10.201-63.636c0-23.643-3.139-44.475-9.52-62.47
	c-9.539-26.99-26.52-47.548-50.55-61.072c-24.023-13.547-54.899-20.159-92.516-20.163h-60.739v3.914H167.929v3.914h56.825
	c24.473,0,45.763,2.881,63.871,8.557c27.174,8.542,47.157,23.221,60.591,44.24c13.422,21.025,20.296,48.633,20.296,83.079
	c0,23.059-3.272,43.355-9.723,60.939c-6.455,17.584-16.068,32.47-28.908,44.828c-12.859,12.361-28.246,21.63-46.323,27.851
	c-18.073,6.216-38.838,9.359-62.34,9.359h-50.374v-282.767H167.929v3.914V1649.423z"/>
<path fill="#010202" d="M866.305,1974.666h-47.192l-38.561-101.985H626.307l-36.279,101.985h-47.446l139.54-363.802h44.135
	L866.305,1974.666z M766.602,1834.378l-57.083-155.009c-1.867-5.081-3.723-13.196-5.586-24.351h-1.014
	c-1.687,10.318-3.64,18.437-5.832,24.351l-56.571,155.009H766.602z"/>
<path fill="#010202" d="M866.305,1974.666v-3.914h-44.487l-38.561-101.985H623.543l-36.275,101.985h-38.995l136.537-355.974h38.76
	l139.082,361.294L866.305,1974.666v-3.914V1974.666l3.652-1.41l-141.012-366.307h-49.517L536.887,1978.58h55.905l36.279-101.985
	h148.778l38.561,101.985h55.596l-2.047-5.324L866.305,1974.666z M766.602,1834.378l3.672-1.354l-57.083-155.009
	c-1.703-4.62-3.558-12.613-5.398-23.643l-0.548-3.268h-4.325h-3.323l-0.54,3.28c-1.66,10.165-3.582,18.089-5.641,23.623l-0.008,0.02
	l-58.489,160.266h137.297l-1.942-5.269L766.602,1834.378v-3.914H646.11l54.653-149.756l-0.008,0.019
	c2.333-6.294,4.314-14.604,6.028-25.079l-3.863-0.63v3.914h1.014v-3.914l-3.86,0.646c1.891,11.277,3.746,19.516,5.77,25.052
	l57.087,155.014L766.602,1834.378v-3.914V1834.378z"/>
<path fill="#010202" d="M1286.878,1949.799c-36.533,20.638-77.121,30.96-121.773,30.96c-51.924,0-93.914-16.75-125.965-50.229
	c-32.051-33.496-48.076-77.795-48.076-132.945c0-56.32,17.803-102.529,53.404-138.647c35.601-36.098,80.722-54.151,135.355-54.151
	c39.571,0,72.804,6.432,99.699,19.275v47.191c-29.428-18.616-64.274-27.905-104.522-27.905c-40.764,0-74.17,14.033-100.208,42.111
	c-26.05,28.081-39.077,64.438-39.077,109.089c0,46.002,12.095,82.151,36.278,108.448c24.191,26.312,56.997,39.46,98.443,39.46
	c28.406,0,53.016-5.676,73.821-17.008v-101.985H1164.6v-38.557h122.278V1949.799z"/>
<path fill="#010202" d="M1286.878,1949.799l-1.926-3.409c-35.938,20.296-75.794,30.446-119.847,30.454
	c-51.102-0.043-91.812-16.354-123.139-49.024c-31.264-32.712-46.957-75.817-46.988-130.235
	c0.039-55.513,17.431-100.501,52.277-135.899c34.912-35.347,78.785-52.943,132.568-52.986c39.152,0,71.798,6.369,98.016,18.891
	l1.683-3.53h-3.914v47.191h3.914l2.094-3.311c-30.121-19.055-65.777-28.516-106.616-28.508
	c-41.653-0.047-76.369,14.495-103.081,43.363c-26.786,28.846-40.146,66.361-40.118,111.752
	c-0.02,46.655,12.322,83.936,37.312,111.094c12.467,13.57,27.24,23.799,44.174,30.583c16.938,6.787,36.016,10.145,57.15,10.141
	c28.919,0.004,54.226-5.786,75.696-17.481l2.04-1.112v-108.225h-79.658v-30.732h114.449v160.983H1286.878l-1.926-3.409
	L1286.878,1949.799h3.914v-168.808h-130.106v46.386h79.658v98.071h3.914l-1.871-3.437c-20.143,10.968-44.056,16.526-71.95,16.53
	c-20.312-0.004-38.361-3.222-54.238-9.582c-15.873-6.369-29.601-15.873-41.324-28.614c-23.373-25.436-35.226-60.45-35.245-105.798
	c0.031-43.912,12.726-79.109,38.032-106.428c25.365-27.287,57.463-40.811,97.339-40.858c39.653,0.008,73.688,9.128,102.432,27.298
	l6.005,3.797v-56.766l-2.227-1.065c-27.581-13.164-61.397-19.65-101.386-19.654c-55.486-0.039-101.848,18.464-138.142,55.318
	c-36.357,36.834-54.567,84.268-54.531,141.395c-0.027,55.878,16.331,101.372,49.161,135.649
	c32.775,34.29,76.049,51.479,128.795,51.435c45.254,0.008,86.567-10.479,123.698-31.46l1.989-1.128v-2.282H1286.878z"/>
<path fill="#010202" d="M1613.077,1980.759c-51.588,0-92.896-16.992-123.933-50.984c-31.037-34.012-46.558-78.228-46.558-132.686
	c0-58.524,15.818-105.199,47.442-140.045c31.632-34.849,74.675-52.256,129.131-52.256c50.237,0,90.7,16.91,121.393,50.726
	c30.701,33.836,46.049,78.053,46.049,132.686c0,59.373-15.724,106.31-47.188,140.804
	C1707.958,1963.513,1665.846,1980.759,1613.077,1980.759 M1616.122,1643.347c-38.232,0-69.261,13.775-93.112,41.34
	c-23.846,27.581-35.774,63.777-35.774,108.594c0,44.812,11.63,80.879,34.889,108.205c23.251,27.307,53.564,40.968,90.951,40.968
	c39.911,0,71.371-13.019,94.372-39.073c23.001-26.039,34.501-62.494,34.501-109.345c0-48.03-11.16-85.157-33.487-111.372
	C1686.139,1656.445,1655.356,1643.347,1616.122,1643.347"/>
<path fill="#010202" d="M1613.077,1980.759v-3.914c-50.75-0.051-90.724-16.565-121.045-49.712
	c-30.297-33.233-45.505-76.307-45.532-130.043c0.023-57.847,15.571-103.395,46.424-137.418
	c15.446-17.004,33.589-29.699,54.578-38.197c20.985-8.49,44.843-12.772,71.657-12.772c49.376,0.051,88.504,16.464,118.496,49.442
	c29.957,33.05,45.007,76.131,45.031,130.056c-0.019,58.716-15.493,104.518-46.166,138.165
	c-30.732,33.649-71.504,50.429-123.444,50.48V1980.759v3.911c53.595,0.048,97.045-17.665,129.229-53.031
	c32.255-35.339,48.233-83.404,48.209-143.439c0.027-55.341-15.622-100.694-47.062-135.317
	c-31.393-34.654-73.195-52.061-124.294-52.01c-27.643,0-52.535,4.419-74.592,13.344c-22.058,8.921-41.25,22.355-57.44,40.193
	c-32.391,35.672-48.476,83.478-48.456,142.679c-0.024,55.177,15.806,100.533,47.579,135.324
	c31.758,34.841,74.401,52.304,126.826,52.256V1980.759z M1616.122,1643.347v-3.914c-19.584-0.004-37.473,3.535-53.537,10.671
	c-16.065,7.128-30.274,17.846-42.534,32.019c-24.567,28.396-36.748,65.672-36.729,111.158
	c-0.016,45.462,11.849,82.593,35.821,110.742c11.958,14.048,25.839,24.68,41.547,31.757c15.712,7.081,33.217,10.593,52.386,10.589
	c20.378,0.004,38.752-3.323,55.024-10.064c16.272-6.733,30.415-16.883,42.283-30.333c23.803-26.947,35.496-64.477,35.48-111.936
	c0.008-48.601-11.305-86.759-34.423-113.913c-11.524-13.54-25.33-23.767-41.273-30.552c-15.947-6.787-33.996-10.139-54.046-10.139
	V1643.347v3.914c19.184,0,36.141,3.199,50.977,9.513c14.836,6.322,27.585,15.751,38.385,28.426
	c21.533,25.279,32.548,61.377,32.552,108.835c-0.012,46.248-11.32,81.619-33.519,106.753c-11.133,12.604-24.222,21.992-39.41,28.282
	c-15.184,6.286-32.497,9.469-52.03,9.469c-18.222,0-34.564-3.319-49.169-9.9c-14.604-6.583-27.51-16.433-38.803-29.694
	c-22.543-26.5-33.934-61.506-33.953-105.664c0.02-44.147,11.692-79.259,34.818-106.033c11.591-13.391,24.825-23.341,39.793-29.988
	c14.969-6.647,31.71-9.998,50.359-9.998V1643.347z"/>
<path fill="#005A86" d="M1066.287,897.206c0-74.518-60.411-134.925-134.929-134.925c-74.518,0-134.925,60.407-134.925,134.925
	c0,74.518,60.407,134.926,134.925,134.926C1005.876,1032.132,1066.287,971.725,1066.287,897.206"/>
<path fill="#009FE3" d="M1642.197,518.884c0-72.764-57.745-131.75-128.971-131.75c-71.23,0-128.975,58.986-128.975,131.75
	c0,72.765,57.745,131.751,128.975,131.751C1584.452,650.635,1642.197,591.649,1642.197,518.884"/>
<path fill="#8E2283" d="M1292.595,652.97c0-60.774-49.267-110.04-110.041-110.04c-60.775,0-110.041,49.266-110.041,110.04
	c0,60.775,49.266,110.041,110.041,110.041C1243.328,763.011,1292.595,713.745,1292.595,652.97"/>
<path fill="#EA8F22" d="M1797.409,188.909c0-85.501-69.312-154.817-154.818-154.817c-85.502,0-154.814,69.316-154.814,154.817
	c0,85.502,69.312,154.818,154.814,154.818C1728.097,343.727,1797.409,274.411,1797.409,188.909"/>
<path d="M1583.041,881.23c-0.059-17.208-1.069-40.38-2.568-65.781c-21.623,5.096-44.111,7.879-67.249,7.879
	c-18.28,0-36.145-1.769-53.513-4.99c2.031,27.264,3.523,53.068,3.589,70.792h0.008l-0.004,0.642l0.004,0.646h-0.008
	c-0.223,57.909-7.328,151.968-15.599,201.916c-45.943,277.451-231.203,253.797-243.263,253.797l-299.2,1.046v0.035l-4.889-0.016
	l-4.889,0.016v-0.035l-299.2-1.046c-12.06,0-197.32,23.655-243.263-253.797c-8.271-49.948-15.376-144.006-15.599-201.916h-0.008
	l0.004-0.646l-0.004-0.642h0.008c0.223-57.909,7.328-151.968,15.599-201.916C398.94,409.763,584.2,433.418,596.26,433.418
	l299.2-1.042v-0.035l4.889,0.016l4.889-0.016v0.035l299.2,1.042c2.329,0,10.581-0.747,22.746-0.008
	c15.008-52.489,43.461-99.085,81.325-135.673c-12.651-0.684-21.173,0.177-23.698,0.177l-344.696-1.339v-0.043l-5.633,0.019
	l-5.633-0.019v0.043l-344.697,1.339c-13.896,0-227.406-29.542-280.262,324.862c-9.555,64.063-17.713,184.329-17.967,258.454h-0.012
	l0.004,0.827l-0.004,0.822h0.012c0.254,74.127,8.412,194.392,17.967,258.454c52.856,354.405,266.366,324.863,280.262,324.863
	l344.697,1.339v0.047l5.633-0.024l5.633,0.024v-0.047c0,0,258.522-1.171,344.696-1.339c13.896-0.028,227.406,29.541,280.262-324.863
	c9.551-64.063,17.713-184.328,17.967-258.454h0.012l-0.008-0.822l0.008-0.827H1583.041z"/>
</svg>
